<?xml version="1.0" standalone="no"?>
<!DOCTYPE svg PUBLIC "-//W3C//DTD SVG 20010904//EN"
 "http://www.w3.org/TR/2001/REC-SVG-20010904/DTD/svg10.dtd">
<svg version="1.0" xmlns="http://www.w3.org/2000/svg"
 width="400.000000pt" height="400.000000pt" viewBox="0 0 400.000000 400.000000"
 preserveAspectRatio="xMidYMid meet">

<g transform="translate(0.000000,400.000000) scale(0.100000,-0.100000)"
fill="currentColor" stroke="none">
<path d="M1069 3813 c-11 -12 -15 -62 -17 -197 -3 -226 -2 -230 87 -234 102
-5 101 -6 101 220 0 111 -4 197 -10 209 -9 16 -22 19 -79 19 -52 0 -72 -4 -82
-17z"/>
<path d="M1492 3818 c-17 -17 -17 -409 0 -426 7 -7 40 -12 78 -12 38 0 71 5
78 12 17 17 17 409 0 426 -16 16 -140 16 -156 0z"/>
<path d="M1920 3820 c-12 -8 -16 -44 -18 -200 -4 -238 -3 -240 93 -240 96 0
97 2 93 240 -2 156 -6 192 -18 200 -8 5 -42 10 -75 10 -33 0 -67 -5 -75 -10z"/>
<path d="M2336 3808 c-13 -18 -16 -56 -16 -203 0 -223 1 -225 95 -225 94 0 95
2 95 228 0 107 -4 191 -10 203 -9 16 -22 19 -80 19 -60 0 -71 -3 -84 -22z"/>
<path d="M2766 3814 c-13 -13 -16 -46 -16 -205 0 -112 4 -198 10 -210 9 -16
22 -19 80 -19 58 0 71 3 80 19 6 12 10 98 10 210 0 223 1 221 -90 221 -40 0
-64 -5 -74 -16z"/>
<path d="M805 3256 c-45 -19 -83 -70 -90 -119 -3 -23 -5 -557 -3 -1187 3
-1249 0 -1175 62 -1221 l31 -24 1175 -3 c861 -2 1182 1 1203 9 15 6 41 27 57
46 l30 34 0 1188 0 1188 -23 34 c-49 74 43 69 -1252 69 -942 -1 -1166 -3
-1190 -14z m557 -608 c9 -8 59 -158 117 -353 56 -187 105 -348 109 -359 6 -13
22 27 59 140 28 88 82 254 120 369 l68 210 125 3 c69 1 132 -2 140 -8 13 -8
15 -86 12 -622 -2 -472 -5 -614 -15 -620 -20 -13 -163 -9 -175 5 -6 7 -11 155
-14 404 -1 215 -6 386 -9 380 -4 -7 -48 -145 -98 -307 -51 -162 -97 -308 -103
-323 l-11 -28 -95 3 -94 3 -55 175 c-120 389 -144 466 -153 485 -5 12 -9 -142
-9 -382 -1 -387 -2 -403 -20 -413 -27 -14 -164 -13 -179 2 -17 17 -17 1219 0
1236 17 17 258 17 280 0z m1452 -17 c73 -29 129 -85 153 -154 14 -41 18 -84
18 -202 0 -192 -14 -242 -83 -307 -71 -67 -135 -85 -304 -87 l-88 -1 0 -228
c0 -164 -3 -231 -12 -240 -19 -19 -183 -16 -202 4 -14 14 -16 83 -16 610 0
409 3 602 11 616 10 19 18 20 237 16 208 -4 232 -6 286 -27z"/>
<path d="M2514 2457 c-2 -7 -3 -96 -2 -197 l3 -185 25 -4 c14 -2 55 2 92 9 57
10 72 17 98 46 38 44 43 67 38 170 -4 81 -6 87 -39 120 -28 27 -47 36 -94 44
-81 13 -115 12 -121 -3z"/>
<path d="M150 2911 c-5 -11 -10 -49 -10 -85 0 -95 1 -96 231 -96 223 0 219 -2
219 106 0 41 -5 75 -12 82 -9 9 -70 12 -215 12 -190 0 -203 -1 -213 -19z"/>
<path d="M3406 2908 c-24 -34 -21 -133 4 -158 19 -19 33 -20 203 -20 228 0
227 0 227 104 0 43 -5 77 -12 84 -9 9 -69 12 -209 12 -193 0 -198 -1 -213 -22z"/>
<path d="M156 2494 c-11 -11 -16 -34 -16 -75 0 -104 -10 -99 223 -99 145 0
206 3 215 12 7 7 12 41 12 85 0 61 -3 74 -19 83 -12 6 -98 10 -210 10 -159 0
-192 -3 -205 -16z"/>
<path d="M3406 2488 c-10 -13 -16 -43 -16 -73 0 -30 6 -60 16 -73 15 -21 20
-22 214 -22 230 0 220 -4 220 99 0 92 3 91 -225 91 -189 0 -194 -1 -209 -22z"/>
<path d="M150 2071 c-5 -11 -10 -49 -10 -84 0 -98 -2 -97 228 -97 160 0 193 3
206 16 20 19 23 153 4 172 -9 9 -70 12 -215 12 -190 0 -203 -1 -213 -19z"/>
<path d="M3406 2068 c-24 -34 -21 -133 4 -158 19 -19 33 -20 208 -20 226 0
222 -2 222 106 0 41 -5 75 -12 82 -9 9 -69 12 -209 12 -193 0 -198 -1 -213
-22z"/>
<path d="M150 1651 c-16 -32 -13 -147 6 -165 23 -24 395 -24 418 0 20 19 23
153 4 172 -9 9 -70 12 -215 12 -190 0 -203 -1 -213 -19z"/>
<path d="M3406 1648 c-24 -34 -21 -133 4 -158 19 -19 33 -20 203 -20 227 0
227 0 227 100 0 102 6 100 -225 100 -189 0 -194 -1 -209 -22z"/>
<path d="M157 1232 c-26 -28 -23 -136 3 -162 19 -19 33 -20 203 -20 228 0 227
0 227 104 0 43 -5 77 -12 84 -9 9 -69 12 -208 12 -178 0 -198 -2 -213 -18z"/>
<path d="M3406 1228 c-24 -34 -21 -133 4 -158 19 -19 33 -20 205 -20 223 0
225 1 225 104 0 98 4 96 -225 96 -189 0 -194 -1 -209 -22z"/>
<path d="M1069 564 c-16 -19 -24 -360 -9 -399 9 -24 14 -25 84 -25 64 0 77 3
86 19 6 12 10 96 10 204 0 218 0 217 -97 217 -43 0 -64 -5 -74 -16z"/>
<path d="M1491 566 c-8 -9 -11 -75 -9 -217 l3 -204 73 -3 c46 -2 79 2 88 9 19
15 21 398 2 417 -17 17 -142 16 -157 -2z"/>
<path d="M1916 558 c-13 -18 -16 -55 -16 -195 0 -94 4 -183 10 -197 9 -25 13
-26 84 -26 64 0 77 3 86 19 13 25 13 361 0 395 -9 24 -14 26 -79 26 -61 0 -72
-3 -85 -22z"/>
<path d="M2336 558 c-13 -18 -16 -56 -16 -201 0 -104 4 -186 10 -198 9 -16 22
-19 85 -19 63 0 76 3 85 19 6 12 10 95 10 201 0 106 -4 189 -10 201 -9 16 -22
19 -80 19 -60 0 -71 -3 -84 -22z"/>
<path d="M2762 568 c-17 -17 -17 -399 0 -416 7 -7 40 -12 80 -12 56 0 69 3 78
19 6 12 10 95 10 201 0 106 -4 189 -10 201 -9 16 -22 19 -78 19 -40 0 -73 -5
-80 -12z"/>
</g>
</svg>
